<?xml version="1.0" encoding="utf-8"?>
<!-- Generator: Adobe Illustrator 24.1.1, SVG Export Plug-In . SVG Version: 6.00 Build 0)  -->
<svg version="1.1" id="Layer_1" xmlns="http://www.w3.org/2000/svg" xmlns:xlink="http://www.w3.org/1999/xlink" x="0px" y="0px"
	 viewBox="0 0 474.2 474.2" style="enable-background:new 0 0 474.2 474.2;" xml:space="preserve">
<style type="text/css">
	.st0{fill:#999BA4;}
</style>
<path class="st0" d="M398,359.4c27.1-35.5,41.3-77.6,41.3-122.2c0-44.7-14.3-86.7-41.3-122.2l68-68c5.2-5,8.3-12.1,8.3-19.4
	c0-7.3-3-14.3-8.2-19.3C461,3,454,0,446.8,0c-7.3,0-14.3,3-19.4,8.2l-68,68c-35.5-27.1-77.6-41.3-122.2-41.3s-86.7,14.3-122.2,41.3
	l-68-68C41.8,3,34.8,0,27.5,0C20.2,0,13.2,3,8.2,8.2C3,13.2,0,20.2,0,27.5c0,7.3,3,14.3,8.3,19.4l68,68
	c-27.1,35.5-41.3,77.6-41.3,122.2c0,44.7,14.3,86.7,41.3,122.2l-68,68C3,432.4,0,439.5,0,446.8c0,7.2,2.9,14.2,8.1,19.2
	c4.9,5.3,11.9,8.3,19.4,8.3c7.5,0,14.6-3,19.5-8.3l67.9-67.9c35.5,27.1,77.6,41.3,122.2,41.3S323.9,425,359.4,398l67.9,67.9
	c4.9,5.3,12,8.3,19.5,8.3c7.5,0,14.5-3,19.4-8.3c5.1-5,8.1-12,8.1-19.2c0-7.3-3-14.3-8.3-19.4L398,359.4z M329,352
	c-25.9,20.9-58.6,32.4-91.9,32.4c-33.3,0-66-11.5-91.9-32.4c-8.5-6.9-16.1-14.4-23-23c-20.9-25.9-32.4-58.6-32.4-91.9
	c0-33.3,11.5-66,32.4-91.9c6.9-8.5,14.4-16.1,22.9-23c25.9-20.9,58.6-32.4,91.9-32.4s66,11.5,91.9,32.4c8.5,6.9,16.1,14.4,23,23
	c20.9,25.9,32.4,58.6,32.4,91.9c0,33.3-11.5,66-32.4,91.9C345.1,337.6,337.6,345.1,329,352z"/>
</svg>
